<svg
              fill="#FFFFFF"
              height="24"
              width="24"
              version="1.1"
              id="Layer_1"
              xmlns="http://www.w3.org/2000/svg"
              xmlns:xlink="http://www.w3.org/1999/xlink"
              viewBox="0 0 512 512"
              xml:space="preserve"
            >
              <path
                d="M256,114.383c-22.526,0-40.851,18.325-40.851,40.851s18.325,40.851,40.851,40.851s40.851-18.325,40.851-40.851
			S278.526,114.383,256,114.383z M256,179.745c-13.516,0-24.511-10.995-24.511-24.511c0-13.516,10.995-24.511,24.511-24.511
			s24.511,10.995,24.511,24.511C280.511,168.75,269.516,179.745,256,179.745z"
              />
              <path
                d="M495.66,283.234h-2.723v-38.128h2.723c4.512,0,8.17-3.658,8.17-8.17c0-4.512-3.658-8.17-8.17-8.17h-2.878
			c-2.027-60.223-26.424-116.55-69.243-159.369c-26.822-26.822-58.948-46.412-94.006-57.812V8.45c0-4.512-3.658-8.17-8.17-8.17
			c-3.999,0-7.322,2.876-8.026,6.671C294.802,2.366,275.583,0,256,0c-19.714,0-39.059,2.393-57.707,7.038
			c-1.154-3.113-4.141-5.337-7.655-5.337c-4.512,0-8.17,3.658-8.17,8.17v1.714c-35.06,11.399-67.184,30.989-94.008,57.812
			c-42.82,42.818-67.215,99.144-69.242,159.368H16.34c-4.512,0-8.17,3.658-8.17,8.17c0,4.512,3.658,8.17,8.17,8.17h2.723v38.128
			H16.34c-4.512,0-8.17,3.658-8.17,8.17c0,4.512,3.658,8.17,8.17,8.17h2.723V503.83c0,4.512,3.658,8.17,8.17,8.17h457.532
			c4.512,0,8.17-3.658,8.17-8.17V299.574h2.723c4.512,0,8.17-3.658,8.17-8.17C503.83,286.892,500.172,283.234,495.66,283.234z
			M198.809,23.874c18.248-4.903,37.417-7.534,57.191-7.534c19.774,0,38.944,2.631,57.191,7.534v41.487H198.809V23.874z
			M182.468,28.958v175.297c0,4.512,3.658,8.17,8.17,8.17s8.17-3.658,8.17-8.17V81.702h114.383v122.553
			c0,4.512,3.658,8.17,8.17,8.17s8.17-3.658,8.17-8.17V28.958C412.68,58.443,473.049,136.45,476.429,228.766H35.571
			C38.951,136.45,99.32,58.443,182.468,28.958z M247.83,495.66h-49.021V343.149h49.021V495.66z M313.191,495.66H264.17V343.149
			h49.021V495.66z M476.596,283.234h-367.66c-4.512,0-8.17,3.658-8.17,8.17c0,4.512,3.658,8.17,8.17,8.17h367.66V495.66H329.532
			V334.979c0-4.512-3.658-8.17-8.17-8.17H190.638c-4.512,0-8.17,3.658-8.17,8.17V495.66H35.404V299.574h40.851
			c4.512,0,8.17-3.658,8.17-8.17c0-4.512-3.658-8.17-8.17-8.17H35.404v-38.128h49.021v13.617c0,4.512,3.658,8.17,8.17,8.17
			s8.17-3.658,8.17-8.17v-13.617h49.021v13.617c0,4.512,3.658,8.17,8.17,8.17s8.17-3.658,8.17-8.17v-13.617h49.021v13.617
			c0,4.512,3.658,8.17,8.17,8.17s8.17-3.658,8.17-8.17v-13.617h49.021v13.617c0,4.512,3.658,8.17,8.17,8.17s8.17-3.658,8.17-8.17
			v-13.617h49.021v13.617c0,4.512,3.658,8.17,8.17,8.17s8.17-3.658,8.17-8.17v-13.617h49.021v13.617c0,4.512,3.658,8.17,8.17,8.17
			c4.512,0,8.17-3.658,8.17-8.17v-13.617h49.021V283.234z"
              />
              <path
                d="M354.043,359.489c-4.512,0-8.17,3.658-8.17,8.17v43.574c0,4.512,3.658,8.17,8.17,8.17s8.17-3.658,8.17-8.17V367.66 
          C362.213,363.147,358.555,359.489,354.043,359.489z"
              />
              <path
                d="M157.957,359.489c-4.512,0-8.17,3.658-8.17,8.17v43.574c0,4.512,3.658,8.17,8.17,8.17s8.17-3.658,8.17-8.17V367.66
			C166.128,363.147,162.47,359.489,157.957,359.489z"
              />
            </svg>