<?xml version="1.0" encoding="utf-8"?><svg version="1.1" id="Layer_1" xmlns="http://www.w3.org/2000/svg" xmlns:xlink="http://www.w3.org/1999/xlink" x="0px" y="0px" viewBox="0 0 121.35 122.88" style="enable-background:new 0 0 121.35 122.88" xml:space="preserve"><g><path d="M48.85,58.41l-4.22,0.9c-1.42,0.3-2.82-0.57-3.18-1.97l-1.63-5.81l-19.08,5.15l0.1,0.37c0.24,0.88,0.11,1.78-0.3,2.51 c-0.41,0.75-1.1,1.35-1.97,1.62c-3.16,0.98-6.74,1.93-9.8,3.05c-0.17,0.05-0.35,0.09-0.52,0.1c-0.73,0.1-1.44-0.05-2.05-0.38 c-0.73-0.4-1.32-1.09-1.59-1.96l-0.01-0.02l0,0L4.6,61.96c-0.03-0.09-0.05-0.17-0.06-0.26L0.12,45.62 c-0.24-0.88-0.11-1.77,0.3-2.51l0-0.01l0,0c0.41-0.74,1.09-1.34,1.97-1.61l9.75-3.03c0.15-0.05,0.3-0.08,0.45-0.1 c0.76-0.13,1.51,0.01,2.15,0.36c0.74,0.41,1.33,1.09,1.6,1.95c0.01,0.04,0.02,0.08,0.04,0.13L35.4,35.8l-1.44-5.12 c-0.4-1.41,0.41-2.88,1.8-3.31l44.09-13.72l-0.36-1.27c-0.44-1.37,0.28-2.86,1.65-3.36l24.01-8.87l0.17-0.05 c1.43-0.42,2.93,0.4,3.35,1.83l12.53,42.24c0.06,0.16,0.1,0.34,0.13,0.52c0.22,1.48-0.81,2.85-2.29,3.07l-26.02,3.83 c-1.33,0.19-2.62-0.62-2.99-1.95L89.85,49l-18.37,4.19c0.48,2.62,0.02,5.24-1.15,7.48c-0.47,0.89-1.05,1.72-1.74,2.47l27.71,55.54 c0.67,1.34,0.12,2.96-1.22,3.63c-1.34,0.67-2.96,0.12-3.63-1.22L75.76,89.65H62.61l0.49,30.49c0.02,1.49-1.17,2.72-2.66,2.74 c-1.49,0.02-2.72-1.17-2.74-2.66l-0.49-30.58H43.71l-15.02,30.52c-0.66,1.34-2.28,1.89-3.62,1.23c-1.34-0.66-1.89-2.28-1.23-3.62 l15.68-31.86c0.05-0.12,0.11-0.24,0.17-0.35L51,62.58c-0.91-1.12-1.62-2.42-2.07-3.87l-0.01-0.03 C48.9,58.59,48.87,58.5,48.85,58.41L48.85,58.41z M73.06,84.23l-9.01-18.06c-0.18,0.07-0.37,0.13-0.56,0.19l-0.02,0 c-0.41,0.13-0.82,0.23-1.23,0.31l0.28,17.56H73.06L73.06,84.23z M57.12,84.23l-0.28-17.8c-0.5-0.14-0.98-0.32-1.45-0.52 l-9.02,18.32H57.12L57.12,84.23z M63.59,60.36c0.05-0.04,0.1-0.08,0.16-0.11c0.76-0.56,1.37-1.28,1.8-2.1 c0.74-1.41,0.94-3.1,0.43-4.74c-0.51-1.64-1.64-2.92-3.05-3.66c-1.37-0.72-3.01-0.93-4.61-0.47c-0.09,0.03-0.18,0.06-0.27,0.08 c-1.58,0.53-2.81,1.63-3.53,3c-0.72,1.37-0.93,3.01-0.47,4.61c0.03,0.09,0.06,0.18,0.08,0.27c0.53,1.58,1.63,2.81,3,3.53 c1.37,0.72,3.01,0.93,4.61,0.47c0.09-0.03,0.18-0.06,0.27-0.08C62.59,60.96,63.12,60.69,63.59,60.36L63.59,60.36z M69.25,48.16 l19.08-4.35l-7.09-24.92L39.87,31.75l1.44,5.11c0.01,0.04,0.03,0.09,0.04,0.13l0.25,0.9l4.38,15.6l2.67-0.57 c0.22-1.08,0.59-2.12,1.1-3.08c1.38-2.63,3.77-4.74,6.84-5.69l0.02,0c3.06-0.95,6.22-0.57,8.85,0.82 C66.91,45.74,68.22,46.82,69.25,48.16L69.25,48.16z M14.8,56.36c-0.15-0.24-0.27-0.5-0.35-0.79l-2.9-10.72l0.01,0l-0.01-0.02 c-0.02-0.09-0.04-0.18-0.06-0.27l-5.37,1.67l3.27,11.9l5.43-1.69L14.8,56.36L14.8,56.36z M17.79,46l1.5,5.47l19.04-5.14l-1.44-5.18 L36.86,41L17.79,46L17.79,46z"/></g></svg>